<?xml version="1.0" encoding="iso-8859-1"?>
<!-- Generator: Adobe Illustrator 18.1.1, SVG Export Plug-In . SVG Version: 6.00 Build 0)  -->
<svg version="1.1" id="Capa_1" xmlns="http://www.w3.org/2000/svg" xmlns:xlink="http://www.w3.org/1999/xlink" x="0px" y="0px"
	 viewBox="0 0 256.001 256.001" style="enable-background:new 0 0 256.001 256.001;" xml:space="preserve">
<g>
	<path style="fill:#030104;" d="M175.818,138.042c-4.063-51.172-71.446-68.035-98.987-24.216
		c-17.864-10.1-40.646,1.784-42.073,22.662C15.171,138.886,0,155.565,0,175.8c0,21.881,17.739,39.619,39.62,39.619h124.174
		c21.881,0,39.621-17.738,39.621-39.619C203.416,158.11,191.82,143.134,175.818,138.042z"/>
	<path style="fill:#030104;" d="M244.029,61.989c-1.762-22.193-30.984-29.505-42.929-10.501c-7.747-4.38-17.627,0.772-18.247,9.828
		c-8.493,1.04-15.073,8.273-15.073,17.048c0,9.49,7.694,17.183,17.183,17.183h53.854c9.489,0,17.184-7.693,17.184-17.183
		C256,70.693,250.971,64.198,244.029,61.989z"/>
</g>
<g>
</g>
<g>
</g>
<g>
</g>
<g>
</g>
<g>
</g>
<g>
</g>
<g>
</g>
<g>
</g>
<g>
</g>
<g>
</g>
<g>
</g>
<g>
</g>
<g>
</g>
<g>
</g>
<g>
</g>
</svg>
