<?xml version="1.0" encoding="utf-8"?>
<!-- Svg Vector Icons : http://www.onlinewebfonts.com/icon -->
<!DOCTYPE svg PUBLIC "-//W3C//DTD SVG 1.1//EN" "http://www.w3.org/Graphics/SVG/1.1/DTD/svg11.dtd">
<svg version="1.1" xmlns="http://www.w3.org/2000/svg" xmlns:xlink="http://www.w3.org/1999/xlink" x="0px" y="0px" viewBox="0 0 1000 1000" enable-background="new 0 0 1000 1000" xml:space="preserve">
<metadata> Svg Vector Icons : http://www.onlinewebfonts.com/icon </metadata>
<g><g transform="translate(0.000000,511.000000) scale(0.100000,-0.100000)"><path d="M814.2,3248.9c-217.8-60.8-714.2-253-714.2-278.6c0-16,160.1-374.7,172.9-387.5c6.4-6.4,96.1,25.6,198.6,70.5c317.1,140.9,611.7,208.2,909.5,208.2c349.1,0,557.3-54.5,1056.9-275.4c646.9-288.2,829.5-339.5,1239.4-358.7c525.2-22.4,701.4,22.4,1578.9,403.5c406.7,176.1,634.1,230.6,954.4,230.6c345.9,0,554-54.5,1076.1-285c627.7-278.6,807-329.9,1236.2-345.9c413.2-19.2,634.1,19.2,1047.3,182.6c361.9,140.9,345.9,121.7,249.8,336.3c-44.8,105.7-86.5,195.4-92.9,198.6c-6.4,6.4-96.1-25.6-198.5-70.5c-317.1-140.9-611.7-208.2-909.6-208.2c-355.5,0-547.6,51.2-1133.7,307.5c-608.5,265.8-864.7,333.1-1265,333.1c-403.5,0-723.8-80.1-1233-304.2c-630.9-278.6-733.4-310.7-1108.1-326.7c-416.3-19.2-589.3,22.4-1172.2,278.6c-646.9,288.2-797.4,326.7-1261.8,339.5C1121.6,3306.6,999.9,3297,814.2,3248.9z"/><path d="M916.7,1503.5c-217.8-51.2-679-221-765.4-285c-54.5-41.6-54.5-51.2,28.8-217.8c48-96.1,92.9-179.4,99.3-185.7c3.2-6.4,118.5,35.2,249.8,89.7c695,288.2,1111.3,262.6,1988.8-124.9c1024.8-454.8,1537.3-458,2526.9-9.6c512.4,230.6,739.8,301,1060.1,320.3c352.3,19.2,592.5-28.8,1012-214.6C7988,494.7,8154.6,446.7,8635,449.9c281.8,3.2,406.7,19.2,624.5,83.3C9515.7,610,9900,763.7,9900,792.5c0,6.4-38.4,96.1-86.5,201.8l-89.7,192.2l-304.2-121.7C8731,789.3,8343.5,818.2,7469.2,1212.1c-493.2,221-771.8,301-1127.3,326.7c-451.6,32-794.3-51.2-1441.2-342.7c-906.3-409.9-1258.6-413.1-2177.8-16c-262.6,112.1-573.3,237-691.8,275.4C1752.6,1541.9,1192.1,1567.6,916.7,1503.5z"/><path d="M1044.8-248.3C782.1-286.7,100-526.9,100-578.2c0-6.4,38.4-96.1,89.7-201.8l86.5-192.2l304.2,121.7c650.1,259.4,1111.3,237,1822.3-89.7c1060.1-486.8,1594.9-515.6,2469.2-131.3c201.8,86.5,512.4,211.3,688.6,275.4c288.2,102.5,352.3,115.3,640.5,115.3c381.1,0,525.2-38.4,1114.5-297.9c560.4-249.8,813.5-323.5,1159.3-345.9c345.9-22.4,691.8,38.4,1060.1,179.4c390.7,150.5,387.5,147.3,281.9,365.1c-51.3,99.3-99.3,182.5-112.1,182.5c-12.8,0-124.9-41.6-246.6-96.1c-672.5-285-1101.7-259.4-1969.6,124.9c-611.7,272.2-855.1,333-1271.4,333c-435.5,3.2-666.1-57.6-1258.6-317c-935.2-410-1338.7-432.4-2072.1-108.9c-509.2,224.2-749.4,317.1-941.6,365.1C1704.5-232.3,1281.8-209.9,1044.8-248.3z"/><path d="M814.2-2067.4C602.8-2125,100-2320.4,100-2342.8c0-60.9,179.4-400.3,205-387.5c646.9,262.6,759,288.2,1185,269c352.3-19.2,486.8-60.8,1207.4-377.9c490-211.3,746.2-265.8,1197.8-246.6c397.1,16,682.1,92.9,1159.4,313.8c522,243.4,698.2,294.6,1066.5,310.7c416.3,16,595.7-25.6,1172.1-281.8c614.9-272.2,800.7-326.7,1220.2-342.7c416.3-19.2,679,28.8,1095.3,198.6c147.3,60.9,275.4,115.3,281.8,124.9c9.6,9.6-137.7,368.3-163.3,397.1c-6.4,6.4-115.3-32-243.4-86.5c-333.1-144.1-566.9-195.3-864.7-195.3c-345.9,0-560.5,57.6-1124.1,307.4c-602.1,262.6-871.1,333.1-1293.9,333.1c-413.1,0-679-67.2-1220.2-304.2c-614.9-275.4-730.2-307.4-1079.3-326.7c-397.1-22.4-634.1,32-1194.6,278.6c-640.5,285.1-797.4,326.7-1261.8,339.5C1121.6-2009.7,999.9-2019.4,814.2-2067.4z"/></g></g>
</svg>