<?xml version="1.0" encoding="utf-8"?>
<!-- Svg Vector Icons : http://www.onlinewebfonts.com/icon -->
<!DOCTYPE svg PUBLIC "-//W3C//DTD SVG 1.1//EN" "http://www.w3.org/Graphics/SVG/1.1/DTD/svg11.dtd">
<svg version="1.1" xmlns="http://www.w3.org/2000/svg" xmlns:xlink="http://www.w3.org/1999/xlink" x="0px" y="0px" viewBox="0 0 1000 1000" enable-background="new 0 0 1000 1000" xml:space="preserve">
<metadata> Svg Vector Icons : http://www.onlinewebfonts.com/icon </metadata>
<g><g transform="translate(0.000000,512.000000) scale(0.100000,-0.100000)"><path d="M4875.4,4999.2c-70.9-32.6-134.2-99.7-161-170.6c-13.4-34.5-21.1-287.6-21.1-695.9v-640.3l-394.9,297.2c-256.9,191.7-417.9,301-460.1,308.7c-210.9,40.3-394.9-130.4-366.2-341.3c5.8-40.3,23-95.9,40.3-120.8c17.3-26.8,289.5-241.6,605.8-479.3l575.1-431.4V1688.3c0-569.4-5.7-1031.4-13.4-1027.6C4557.1,724,2931.4,1663.4,2914.2,1680.7c-15.3,13.4-51.8,256.9-99.7,692.1c-42.2,368.1-84.4,699.8-95.9,740c-24.9,86.3-130.4,182.1-220.5,199.4c-99.7,19.2-193.6-5.8-268.4-70.9c-113.1-99.7-116.9-141.9-57.5-665.2c28.8-255,47.9-469.7,44.1-479.3c-1.9-9.6-247.3,124.6-542.5,295.2c-295.2,172.5-565.5,318.2-598.1,325.9c-105.4,21.1-199.4-7.7-276.1-86.3c-113.1-111.2-124.6-285.7-26.8-400.7c24.9-30.7,291.4-195.6,592.4-370c299.1-172.5,542.6-318.2,538.7-322.1c-3.8-3.8-199.4-88.2-435.2-187.9c-325.9-138-442.8-195.5-488.9-245.4c-178.3-187.9-36.4-508,226.2-508c32.6,0,341.2,120.8,718.9,279.9l659.5,279.9l891.5-513.8c490.8-283.7,891.5-519.5,891.5-525.3c0-5.7-400.7-241.6-891.5-525.3l-891.5-513.8l-657.6,279.9C1539.6-476.1,1242.4-361,1206-361c-262.7,0-406.4-318.3-226.2-508c47.9-49.9,159.1-105.4,483.1-241.6c232-97.8,427.5-182.1,435.2-187.9c7.7-5.8-232-153.4-533-325.9c-299.1-172.5-567.5-339.3-592.4-370c-178.3-210.9,26.8-542.5,302.9-487c32.6,7.7,302.9,153.4,598.1,325.9c295.2,170.6,540.6,304.8,542.5,295.2c3.8-9.6-15.3-224.3-44.1-479.3c-59.4-523.4-55.6-565.5,57.5-665.2c163-141.8,433.3-70.9,488.9,128.5c11.5,40.3,53.7,371.9,95.9,740c49.8,439,82.4,676.8,99.7,692.1c17.2,17.2,1643,954.7,1765.7,1019.9c7.7,3.8,13.4-458.2,13.4-1027.6V-2489l-575.1-431.3c-316.3-237.7-588.6-452.4-605.8-479.3c-17.2-24.9-34.5-80.5-40.3-120.8c-28.8-210.9,155.3-381.5,366.2-341.3c42.2,7.7,203.2,116.9,458.2,308.7l394.9,297.1l5.8-669.1c5.7-642.2,7.7-672.9,46-722.7c74.8-101.6,136.1-132.3,256.9-132.3c120.8,0,182.1,30.7,256.9,132.3c38.3,49.8,40.3,80.5,46,722.7l5.8,669.1l394.9-297.1c255-191.7,416-301,458.2-308.7c210.9-40.3,394.9,130.4,366.2,341.3c-5.7,40.2-23,95.8-40.3,120.8c-17.2,26.8-289.5,241.5-605.8,479.3L5306.7-2489v1037.2c0,569.4,5.7,1031.4,15.3,1027.6c120.8-63.3,1746.5-1002.7,1763.8-1019.9c15.3-13.4,49.9-255,99.7-692.1c42.2-368.1,84.4-699.7,95.9-740c55.6-199.4,327.8-270.3,488.9-128.5c113.1,99.7,116.9,143.8,57.5,657.6c-26.8,249.2-47.9,463.9-44.1,477.4c3.8,17.3,189.8-80.5,542.5-285.7c295.2-172.5,565.5-318.2,600.1-325.9c103.5-21.1,197.5,7.7,274.1,86.3c113.1,111.2,124.6,285.7,26.8,400.7c-24.9,30.7-291.4,195.5-592.4,370c-301,172.5-540.6,320.2-532.9,325.9c7.7,5.7,203.2,90.1,435.2,187.9c324,136.1,435.2,191.7,483.1,241.6c180.2,189.8,36.4,508-226.2,508c-36.4,0-333.6-115-720.8-279.9l-657.6-279.9l-891.5,513.8c-490.8,283.7-891.5,519.5-891.5,525.3c0,5.8,400.7,241.6,891.5,525.3l891.5,513.8L8075,877.4c377.7-159.1,686.3-279.9,718.9-279.9c262.6,0,404.5,320.2,226.2,508c-47.9,49.8-159.1,105.4-483.1,241.6c-232,97.8-427.5,182.1-435.2,187.9c-7.7,5.8,232,153.4,532.9,325.9c301,174.5,567.5,339.3,592.4,370c178.3,210.9-26.8,542.5-301,486.9c-34.5-7.7-304.8-153.4-600.1-325.9c-348.9-201.3-538.7-302.9-542.5-285.6c-3.8,13.4,17.2,228.1,44.1,477.4c59.4,513.8,55.6,557.9-57.5,657.6c-161,141.9-433.3,70.9-488.9-128.4c-11.5-40.3-53.7-371.9-95.9-740c-42.2-368.1-82.4-676.7-90.1-684.4c-13.4-13.4-1629.6-950.9-1744.6-1012.2l-44.1-23v1037.2v1035.2l575.1,431.4c316.3,237.7,588.6,452.4,605.8,479.3c17.3,24.9,34.5,80.5,40.3,120.8c28.8,210.9-155.3,381.5-366.2,341.3c-42.2-7.7-203.2-116.9-458.2-308.7l-394.9-297.2l-5.8,669.1c-5.7,642.2-7.7,672.9-46,722.8c-21.1,28.8-61.3,70.9-88.2,90.1C5103.5,5022.2,4952.1,5035.6,4875.4,4999.2z"/></g></g>
</svg>